# xmcd
#
# Track frame offsets:
#	150
#	4857
#	20713
#	44167
#	61751
#	77623
#	88932
#	93258
#	115509
#	131355
#	148783
#	164077
#	178748
#	183803
#	199863
#	220778
#	239371
#
# Disc length: 3487 seconds
#
# Revision: 0
# Processed by: cddbd v1.4PL0 Copyright (c) Steve Scherf et al.
# Submitted via: dBpowerAMP V4.0
#
DISCID=ea0d9d11
DTITLE=India Arie - Voyage To India
DYEAR=1900
DGENRE=R&B
TTITLE0=Growth
TTITLE1=Little Things
TTITLE2=Talk To Her
TTITLE3=Slow Down
TTITLE4=The Truth
TTITLE5=Beautiful Surprise
TTITLE6=Healing
TTITLE7=Get It Together
TTITLE8=Headed In The Right Direction
TTITLE9=Can I Walk With You
TTITLE10=The One
TTITLE11=Complicated Melody
TTITLE12=Gratitude
TTITLE13=Good Man
TTITLE14=God Is Real
TTITLE15=Interested (bonus track)
TTITLE16=Brown Skin (bonus track)
EXTD=
EXTT0=
EXTT1=
EXTT2=
EXTT3=
EXTT4=
EXTT5=
EXTT6=
EXTT7=
EXTT8=
EXTT9=
EXTT10=
EXTT11=
EXTT12=
EXTT13=
EXTT14=
EXTT15=
EXTT16=
PLAYORDER=
